# xmcd CD database file
#
# Track frame offsets:
#	150
#	13113
#	36353
#	53596
#	67436
#	92998
#	118223
#	131816
#	152181
#	163881
#	190298
#
# Disc length: 2731 seconds
#
# Revision: 0
# Processed by: cddbd v1.5PL3 Copyright (c) Steve Scherf et al.
# Submitted via: CDex 1.51
#
DISCID=a80aa90b
DTITLE=Nina Simone - The Amazing...
DYEAR=1999
DGENRE=Blues
TTITLE0=Cotton Eyed Joe
TTITLE1=Porgy
TTITLE2=Forbidden Fruit
TTITLE3=Gin House Blues
TTITLE4=Nina's Blues
TTITLE5=Summertime
TTITLE6=The Other Woman
TTITLE7=L'il Liza Jane
TTITLE8=Work Song
TTITLE9=You Can Have Him
TTITLE10=Exactly Like You
EXTD=YEAR: 1999
EXTT0=
EXTT1=
EXTT2=
EXTT3=
EXTT4=
EXTT5=
EXTT6=
EXTT7=
EXTT8=
EXTT9=
EXTT10=
PLAYORDER=
